<svg height="512pt" viewBox="0 -66 512.001 512" width="512pt" xmlns="http://www.w3.org/2000/svg"><path d="m345.828125 56.074219h83.554687l40.441407 127.457031c2.652343 8.363281 10.417969 14.046875 19.191406 14.046875h4.769531c10.058594 0 18.214844 8.15625 18.214844 18.214844v95.523437c0 2.222656-1.800781 4.019532-4.019531 4.019532h-162.152344zm0 0" fill="#efe2dd"/><path d="m511.996094 215.796875v95.523437c0 2.21875-1.800782 4.019532-4.019532 4.019532h-17.390624v-85.058594c0-10.058594-8.15625-18.214844-18.214844-18.214844h-4.769532c-8.773437 0-16.539062-5.683594-19.191406-14.039062l-37.136718-131.535156c-1.960938-6.203126-7.726563-10.421876-14.234376-10.421876h21.410157c6.515625 0 12.269531 4.21875 14.242187 10.421876l37.136719 117.039062c2.652344 8.367188 10.410156 14.046875 19.183594 14.046875h4.765625c10.0625 0 18.21875 8.15625 18.21875 18.21875zm0 0" fill="#e1d3ce"/><path d="m345.828125 315.335938h-316.050781c-2.21875 0-4.019532-1.796876-4.019532-4.019532v-307.292968c0-2.222657 1.800782-4.01953175 4.019532-4.01953175h312.027344c2.222656 0 4.023437 1.79687475 4.023437 4.01953175zm0 0" fill="#80cf00"/><path d="m345.828125 4.019531v311.316407h-20.296875v-315.335938h16.277344c2.222656 0 4.019531 1.804688 4.019531 4.019531zm0 0" fill="#6db000"/><path d="m378.289062 88.054688h30.90625c2.308594 0 4.328126 1.554687 4.914063 3.789062l26.007813 98.78125c.847656 3.222656-1.582032 6.378906-4.914063 6.378906h-56.914063c-2.808593 0-5.085937-2.277344-5.085937-5.085937v-98.78125c0-2.808594 2.277344-5.082031 5.085937-5.082031zm0 0" fill="#9ae7fd"/><path d="m435.207031 197h-10.34375l-30.710937-108.949219h15.042968c2.308594 0 4.324219 1.558594 4.914063 3.789063l26.011719 98.78125c.847656 3.222656-1.582032 6.378906-4.914063 6.378906zm0 0" fill="#64dcfc"/><path d="m512 257.511719h-26.726562c-2.808594 0-5.085938-2.273438-5.085938-5.082031v-21.644532c0-2.808594 2.277344-5.082031 5.085938-5.082031h26.726562zm0 0" fill="#f78e3c"/><path d="m496.09375 225.703125h15.90625v31.808594h-15.90625zm0 0" fill="#e8782d"/><path d="m456.007812 334.867188c0 25.300781-20.515624 45.8125-45.816406 45.8125-25.304687 0-45.816406-20.511719-45.816406-45.8125 0-25.304688 20.511719-45.816407 45.816406-45.816407 25.300782 0 45.816406 20.511719 45.816406 45.816407zm0 0" fill="#838383"/><path d="m456.007812 334.863281c0 25.304688-20.515624 45.816407-45.816406 45.816407-10.964844 0-21.027344-3.847657-28.910156-10.273438 5.609375 2.457031 11.804688 3.8125 18.320312 3.8125 25.296876 0 45.8125-20.511719 45.8125-45.816406 0-14.34375-6.59375-27.148438-16.917968-35.550782 16.195312 7.066407 27.511718 23.21875 27.511718 42.011719zm0 0" fill="#706f6f"/><path d="m428.214844 334.863281c0 9.957031-8.070313 18.027344-18.023438 18.027344-9.957031 0-18.027344-8.070313-18.027344-18.027344 0-9.953125 8.070313-18.023437 18.027344-18.023437 9.953125 0 18.023438 8.070312 18.023438 18.023437zm0 0" fill="#efe2dd"/><path d="m154.226562 334.867188c0 25.300781-20.511718 45.8125-45.816406 45.8125-25.300781 0-45.816406-20.511719-45.816406-45.8125 0-25.304688 20.515625-45.816407 45.816406-45.816407 25.304688 0 45.816406 20.511719 45.816406 45.816407zm0 0" fill="#838383"/><path d="m154.226562 334.863281c0 25.304688-20.511718 45.816407-45.816406 45.816407-10.960937 0-21.023437-3.847657-28.90625-10.273438 5.605469 2.457031 11.800782 3.8125 18.316406 3.8125 25.300782 0 45.816407-20.511719 45.816407-45.816406 0-14.34375-6.597657-27.148438-16.917969-35.550782 16.191406 7.066407 27.507812 23.21875 27.507812 42.011719zm0 0" fill="#706f6f"/><path d="m126.4375 334.863281c0 9.957031-8.070312 18.027344-18.027344 18.027344-9.957031 0-18.027344-8.070313-18.027344-18.027344 0-9.953125 8.070313-18.023437 18.027344-18.023437 9.957032 0 18.027344 8.070312 18.027344 18.023437zm0 0" fill="#efe2dd"/><path d="m441.378906 23.621094h-95.550781v32.453125h101.175781c3.046875 0 5.289063-2.859375 4.566406-5.820313l-5.625-23.046875c-.511718-2.105469-2.398437-3.585937-4.566406-3.585937zm0 0" fill="#7ca1b1"/><path d="m447.003906 56.074219h-25.824218l-10.988282-32.453125h31.1875c2.167969 0 4.054688 1.480468 4.566406 3.585937l5.625 23.046875c.722657 2.960938-1.519531 5.820313-4.566406 5.820313zm0 0" fill="#678d98"/><path d="m395.789062 219.578125h-17.511718c-4.203125 0-7.613282 3.40625-7.613282 7.609375s3.410157 7.613281 7.613282 7.613281h17.511718c4.203126 0 7.609376-3.410156 7.609376-7.613281s-3.40625-7.609375-7.609376-7.609375zm0 0" fill="#7ca1b1"/><path d="m147.949219 240.230469c4.207031 0 7.613281-3.410157 7.613281-7.613281 0-4.203126-3.410156-7.609376-7.613281-7.609376h-100.203125c-4.203125 0-7.609375 3.40625-7.609375 7.609376 0 4.207031 3.40625 7.613281 7.609375 7.613281zm0 0" fill="#537983"/><path d="m200.730469 65.589844c0 8.25-6.6875 14.9375-14.9375 14.9375s-14.9375-6.6875-14.9375-14.9375c0-8.246094 6.6875-14.933594 14.9375-14.933594s14.9375 6.6875 14.9375 14.933594zm0 0" fill="#537983"/><path d="m200.730469 65.59375c0 8.246094-6.691407 14.933594-14.9375 14.933594-6.382813 0-11.832031-4.003906-13.972657-9.640625 2.402344 1.652343 5.3125 2.613281 8.441407 2.613281 8.25 0 14.9375-6.691406 14.9375-14.9375 0-1.863281-.339844-3.652344-.96875-5.292969 3.925781 2.691407 6.5 7.207031 6.5 12.324219zm0 0" fill="#3e5959"/><path d="m89.949219 171.535156c0-52.933594 42.910156-95.84375 95.84375-95.84375 52.933593 0 95.84375 42.910156 95.84375 95.84375zm0 0" fill="#7ca1b1"/><path d="m281.640625 171.535156h-18.734375c0-49.777344-37.941406-90.6875-86.480469-95.390625 3.082031-.296875 6.207031-.453125 9.367188-.453125 52.933593 0 95.847656 42.90625 95.847656 95.84375zm0 0" fill="#678d98"/><path d="m288.527344 197h-205.46875c-3.355469 0-6.074219-2.71875-6.074219-6.074219v-13.316406c0-3.355469 2.71875-6.074219 6.074219-6.074219h205.46875c3.355468 0 6.074218 2.71875 6.074218 6.074219v13.316406c0 3.355469-2.71875 6.074219-6.074218 6.074219zm0 0" fill="#537983"/><path d="m288.527344 197h-10.6875v-25.464844h10.6875c3.355468 0 6.074218 2.71875 6.074218 6.074219v13.316406c0 3.355469-2.71875 6.074219-6.074218 6.074219zm0 0" fill="#3e5959"/><path d="m107.816406 269.652344h-100.207031c-4.203125 0-7.609375-3.40625-7.609375-7.613282 0-4.203124 3.40625-7.609374 7.609375-7.609374h100.207031c4.203125 0 7.609375 3.40625 7.609375 7.609374 0 4.207032-3.40625 7.613282-7.609375 7.613282zm0 0" fill="#537983"/></svg>