<svg height="504pt" viewBox="-8 0 503 504" width="504pt" xmlns="http://www.w3.org/2000/svg"><path d="m200.457031 252.007812c-2.207031 0-4-1.792968-4-4v-31.992187c0-2.207031 1.792969-4 4-4s4 1.792969 4 4v31.992187c0 2.207032-1.792969 4-4 4zm0 0" fill="#ccd1d9"/><path d="m216.457031 252.007812c-2.207031 0-4-1.792968-4-4v-4c0-2.207031 1.792969-4 4-4s4 1.792969 4 4v4c0 2.207032-1.792969 4-4 4zm0 0" fill="#ccd1d9"/><path d="m200.457031 224.007812c-2.207031 0-4-1.792968-4-4v-4c0-2.207031 1.792969-4 4-4s4 1.792969 4 4v4c0 2.207032-1.792969 4-4 4zm0 0" fill="#e6e9ed"/><path d="m184.457031 252.007812c-2.207031 0-4-1.792968-4-4v-4c0-2.207031 1.792969-4 4-4s4 1.792969 4 4v4c0 2.207032-1.792969 4-4 4zm0 0" fill="#ccd1d9"/><path d="m160.464844 248.007812c0 8.878907 7.191406 16 16 16v8h47.984375v-8c8.878906 0 16-7.121093 16-16zm0 0" fill="#e6e9ed"/><path d="m100.457031 56c-2.199219 0-4 1.800781-4 4v88.007812c0 2.199219 1.800781 4 4 4h96c2.199219 0 4-1.800781 4-4v-24c0-2.199218 0-13.808593 0-16.007812v-8c0-2.199219 0-5.800781 0-8v-32c0-2.199219-1.800781-4-4-4zm0 0" fill="#e6e9ed"/><path d="m324.457031 424c6.640625 0 12 5.359375 12 12s-5.359375 12-12 12c-6.5625 0-12-5.359375-12-12s5.4375-12 12-12zm0 0" fill="#545c66"/><path d="m456.457031 16c4.480469 0 8 3.601562 8 8s-3.519531 8-8 8c-4.402343 0-8-3.601562-8-8s3.597657-8 8-8zm0 0" fill="#545c66"/><path d="m464.457031 24c0-4.398438-3.519531-8-8-8-4.402343 0-8 3.601562-8 8s3.597657 8 8 8c4.480469 0 8-3.601562 8-8zm-8-24c13.277344 0 24 10.71875 24 24s-10.722656 24-24 24c-10.402343 0-19.28125-6.640625-22.5625-16-.957031-2.480469-1.4375-5.199219-1.4375-8s.480469-5.519531 1.4375-8c3.28125-9.359375 12.160157-16 22.5625-16zm0 0" fill="#656d78"/><path d="m456.457031 48h-128c-4.402343 0-8-3.601562-8-8s3.597657-8 8-8h105.4375c3.28125 9.359375 12.160157 16 22.5625 16zm0 0" fill="#e6e9ed"/><path d="m352.457031 64c17.679688 0 32 14.320312 32 32s-14.320312 32-32 32h-24v-64zm0 0" fill="#e6e9ed"/><path d="m288.457031 16c-4.402343 0-8 3.601562-8 8v240h-16v-152h-64v-16h64v-72c0-13.28125 10.800781-24 24-24h168c-10.402343 0-19.28125 6.640625-22.5625 16zm0 0" fill="#e6e9ed"/><path d="m96.457031 144h104v8c0 4.398438-3.519531 8-8 8h-88c-4.402343 0-8-3.601562-8-8zm0 0" fill="#656d78"/><path d="m180.457031 72c2.199219 0 4 1.800781 4 4v48c0 2.199219-1.800781 4-4 4h-64c-2.199219 0-4-1.800781-4-4v-48c0-2.199219 1.800781-4 4-4zm0 0" fill="#5d9cec"/><path d="m304.457031 196c0-2.199219 1.800781-4 4-4h136c2.199219 0 4 1.800781 4 4v48c0 2.199219-1.800781 4-4 4h-24c-2.199219 0-5.800781 0-8 0h-8c-2.199219 0-5.800781 0-8 0h-8c-2.199219 0-5.800781 0-8 0h-8c-2.199219 0-5.800781 0-8 0h-8c-2.199219 0-5.800781 0-8 0h-8c-2.199219 0-5.800781 0-8 0h-24c-2.199219 0-4-1.800781-4-4v-8c0-2.199219 0-5.800781 0-8v-16c0-2.199219 0-5.800781 0-8zm0 0" fill="#e6e9ed"/><path d="m324.457031 424c-6.5625 0-12 5.359375-12 12s5.4375 12 12 12c6.640625 0 12-5.359375 12-12s-5.359375-12-12-12zm156 80h-224l6.878907-16 13.59375-31.761719 17.199218-40.238281h.078125l10.242188-24h80c53.117187 0 96 42.960938 96 96v16zm0 0" fill="#656d78"/><path d="m160.457031 488h102.878907l-6.878907 16h-104v-8c0-4.398438 3.597657-8 8-8zm0 0" fill="#e6e9ed"/><path d="m264.457031 387.441406-16 4.558594-9 24h41v-33.121094zm0 0" fill="#ccd1d9"/><path d="m184.457031 384h.320313c1.359375-.078125 2.71875-.320312 4.078125-.640625.167969-.078125.242187 0 .402343-.078125l115.199219-36v28.71875l-24 6.878906-16 4.554688-16 4.558594-9 24h54.679688l-17.199219 40.238281-.480469-.238281h-108l-8-8.007813v-76.785156l15.191407 10.082031c2.726562 1.839844 5.769531 2.71875 8.808593 2.71875zm0 0" fill="#e6e9ed"/><path d="m264.457031 264h-104v68.800781l26.558594 17.679688 5.441406-1.679688 56-17.519531 32-10v-57.28125zm0 0" fill="#656d78"/><path d="m184.457031 384c-3.039062 0-6.082031-.878906-8.808593-2.71875l-15.191407-10.082031-152.808593-101.917969c-7.359376-4.882812-9.359376-14.808594-4.480469-22.167969 4.878906-7.359375 14.878906-9.359375 22.167969-4.402343l135.121093 90.082031 26.558594 17.679687 5.441406-1.679687 56-17.511719 32-10 27.277344-8.5625h.320313c1.441406-.398438 2.875-.71875 4.402343-.71875h160c8.878907 0 16 7.199219 16 16s-7.121093 16-16 16h-157.519531l-10.480469 3.28125-115.199219 36c-.160156.078125-.234374 0-.402343.078125-1.359375.320313-2.71875.5625-4.078125.640625-.082032 0-.160156 0-.320313 0zm0 0" fill="#5d9cec"/><path d="m132.671875 128h16.566406l15-56h-16.566406zm0 0" fill="#87bcf4"/><path d="m336.457031 48h16v16h-16zm0 0" fill="#ccd1d9"/><path d="m224.449219 456-12.007813 32h50.894532l13.601562-31.761719zm0 0" fill="#ccd1d9"/><path d="m280.457031 208h24v24h-24zm0 0" fill="#ccd1d9"/><g fill="#545c66"><path d="m248.457031 319.230469c-2.207031 0-4-1.789063-4-4v-12.734375c0-2.207032 1.792969-4 4-4s4 1.792968 4 4v12.734375c0 2.21875-1.792969 4-4 4zm0 0"/><path d="m192.457031 336.734375c-2.207031 0-4-1.789063-4-4v-12.734375c0-2.207031 1.792969-4 4-4s4 1.792969 4 4v12.734375c0 2.210937-1.792969 4-4 4zm0 0"/><path d="m344.457031 220c-2.207031 0-4-1.792969-4-4v-8c0-2.207031 1.792969-4 4-4s4 1.792969 4 4v8c0 2.207031-1.792969 4-4 4zm0 0"/><path d="m376.457031 220c-2.207031 0-4-1.792969-4-4v-8c0-2.207031 1.792969-4 4-4s4 1.792969 4 4v8c0 2.207031-1.792969 4-4 4zm0 0"/><path d="m408.457031 220c-2.207031 0-4-1.792969-4-4v-8c0-2.207031 1.792969-4 4-4s4 1.792969 4 4v8c0 2.207031-1.792969 4-4 4zm0 0"/><path d="m192.457031 324c-1.703125 0-3.28125-1.097656-3.824219-2.808594-.65625-2.113281.511719-4.351562 2.625-5.015625l56-17.503906c2.140626-.664063 4.359376.519531 5.015626 2.625.65625 2.109375-.511719 4.351563-2.625 5.015625l-56 17.503906c-.390626.128906-.800782.183594-1.191407.183594zm0 0"/></g><path d="m324.457031 64h-8c-2.199219 0-4 1.800781-4 4v56c0 2.199219 1.800781 4 4 4h12v-64zm0 0" fill="#f5f7fa"/><path d="m200.457031 96h64v16h-64zm0 0" fill="#ccd1d9"/><path d="m352.457031 244v8 8c0 2.199219-1.800781 4-4 4h-8c-2.199219 0-4-1.800781-4-4v-8c0-2.199219 0-5.800781 0-8v-24c0-2.199219 1.800781-4 4-4h8c2.199219 0 4 1.800781 4 4zm0 0" fill="#656d78"/><path d="m372.457031 216h8c2.199219 0 4 1.800781 4 4v24 8 8c0 2.199219-1.800781 4-4 4h-8c-2.199219 0-4-1.800781-4-4v-8c0-2.199219 0-5.800781 0-8v-24c0-2.199219 1.800781-4 4-4zm0 0" fill="#656d78"/><path d="m412.457031 216c2.199219 0 4 1.800781 4 4v24 8 8c0 2.199219-1.800781 4-4 4h-8c-2.199219 0-4-1.800781-4-4v-8c0-2.199219 0-5.800781 0-8v-24c0-2.199219 1.800781-4 4-4zm0 0" fill="#656d78"/><path d="m176.457031 448c0 4.417969-3.582031 8-8 8s-8-3.582031-8-8 3.582031-8 8-8 8 3.582031 8 8zm0 0" fill="#e6e9ed"/></svg>