<svg height="512pt" viewBox="0 -99 512 512" width="512pt" xmlns="http://www.w3.org/2000/svg"><path d="m512 167.300781v69.371094c0 12.234375-9.914062 22.15625-22.15625 22.15625h-207.414062v-219.5h168.449218v97.980469c0 4.328125 3.515625 7.832031 7.84375 7.832031h31.121094c12.242188 0 22.15625 9.925781 22.15625 22.160156zm0 0" fill="#c2e7ef"/><path d="m450.878906 39.328125v80.769531h-90.972656c-6.601562 0-11.941406-5.34375-11.941406-11.941406v-68.828125zm0 0" fill="#d6f1f9"/><path d="m512 167.300781v69.371094c0 12.234375-9.914062 22.15625-22.15625 22.15625h-207.414062v-113.570313l4.058593-.117187h203.355469c12.242188 0 22.15625 9.925781 22.15625 22.160156zm0 0" fill="#285fb3"/><path d="m481.652344 64.074219h-199.230469v-48.742188h199.230469c12.125 0 21.957031 9.832031 21.957031 21.957031v4.828126c0 12.125-9.832031 21.957031-21.957031 21.957031zm0 0" fill="#1980f9"/><path d="m512 167.300781v49.699219h-229.570312v-71.742188l4.058593-.117187h203.355469c12.242188 0 22.15625 9.925781 22.15625 22.160156zm0 0" fill="#1980f9"/><path d="m319.929688 13.90625v244.921875h-306.023438c-7.683594 0-13.90625-6.230469-13.90625-13.90625v-231.015625c0-7.683594 6.222656-13.90625 13.90625-13.90625h292.105469c7.683593 0 13.917969 6.222656 13.917969 13.90625zm0 0" fill="#4395fb"/><path d="m319.929688 13.90625v203.09375h-306.023438c-7.683594 0-13.90625-6.230469-13.90625-13.90625v-189.1875c0-7.683594 6.222656-13.90625 13.90625-13.90625h292.105469c7.683593 0 13.917969 6.222656 13.917969 13.90625zm0 0" fill="#63a6fd"/><path d="m125.648438 210.902344c-26.464844-14.109375-59.355469-4.097656-73.464844 22.367187-14.113282 26.464844-4.097656 59.355469 22.367187 73.46875 26.464844 14.109375 59.355469 4.09375 73.464844-22.367187 14.113281-26.464844 4.097656-59.359375-22.367187-73.46875zm0 0" fill="#c8bebc"/><path d="m126.351562 258.828125c0 10.375-6.015624 19.34375-14.746093 23.601563-3.472657 1.703124-7.382813 2.65625-11.511719 2.65625-14.492188 0-26.246094-11.753907-26.246094-26.257813s11.753906-26.257813 26.246094-26.257813c4.128906 0 8.039062.953126 11.511719 2.65625 8.730469 4.257813 14.746093 13.230469 14.746093 23.601563zm0 0" fill="#274c93"/><path d="m372.378906 166.253906h-23.207031c-4.332031 0-7.84375 3.511719-7.84375 7.84375 0 4.332032 3.511719 7.839844 7.84375 7.839844h23.207031c4.335938 0 7.84375-3.507812 7.84375-7.839844 0-4.332031-3.511718-7.84375-7.84375-7.84375zm0 0" fill="#2e5aac"/><path d="m466.253906 258.828125c0 29.992187-24.3125 54.304687-54.304687 54.304687-29.992188 0-54.304688-24.3125-54.304688-54.304687 0-29.988281 24.3125-54.300781 54.304688-54.300781 29.992187 0 54.304687 24.3125 54.304687 54.300781zm0 0" fill="#c8bebc"/><path d="m438.207031 258.828125c0 10.375-6.023437 19.34375-14.753906 23.601563-3.484375 1.703124-7.382813 2.65625-11.503906 2.65625-14.503907 0-26.257813-11.753907-26.257813-26.257813s11.753906-26.257813 26.257813-26.257813c4.121093 0 8.019531.953126 11.503906 2.65625 8.730469 4.257813 14.753906 13.230469 14.753906 23.601563zm0 0" fill="#274c93"/><path d="m126.351562 258.828125c0 10.375-6.015624 19.34375-14.746093 23.601563-8.730469-4.257813-14.753907-13.226563-14.753907-23.601563 0-10.371094 6.023438-19.34375 14.753907-23.601563 8.730469 4.257813 14.746093 13.230469 14.746093 23.601563zm0 0" fill="#285fb3"/><path d="m438.207031 258.828125c0 10.375-6.023437 19.34375-14.753906 23.601563-8.734375-4.257813-14.757813-13.226563-14.757813-23.601563 0-10.371094 6.023438-19.34375 14.757813-23.601563 8.730469 4.257813 14.753906 13.230469 14.753906 23.601563zm0 0" fill="#285fb3"/><path d="m264.824219 180.339844h-209.722657c-13.960937 0-24.59375-12.683594-21.988281-26.402344 6.492188-34.183594 25.492188-60.621094 50.496094-77.078125 9.167969-6.042969 19.15625-10.75 29.632813-13.992187 10.269531-3.1875 20.996093-4.964844 31.90625-5.238282 1.011718-.042968 2.039062-.050781 3.0625-.050781h23.496093c1.023438 0 2.050781.007813 3.074219.039063 10.863281.285156 21.605469 2.0625 31.894531 5.261718 10.457031 3.230469 20.441407 7.914063 29.632813 13.960938 24.941406 16.382812 44.015625 42.734375 50.507812 77.085937 2.605469 13.730469-8.019531 26.414063-21.992187 26.414063zm0 0" fill="#f0a70a"/><g fill="#e38803"><path d="m113.242188 62.867188v56.007812c0 8.15625-6.671876 14.828125-14.816407 14.828125-8.15625 0-14.816406-6.671875-14.816406-14.828125v-42.015625c9.167969-6.042969 19.15625-10.75 29.632813-13.992187zm0 0"/><path d="m174.78125 57.617188v61.257812c0 8.15625-6.671875 14.828125-14.828125 14.828125-8.136719 0-14.804687-6.671875-14.804687-14.828125v-61.246094c1.011718-.042968 2.039062-.050781 3.0625-.050781h23.496093c1.023438 0 2.050781.007813 3.074219.039063zm0 0"/><path d="m236.308594 76.839844v42.035156c0 8.15625-6.671875 14.828125-14.804688 14.828125-8.15625 0-14.828125-6.671875-14.828125-14.828125v-55.996094c10.457031 3.230469 20.441407 7.914063 29.632813 13.960938zm0 0"/></g></svg>